# MagicaVoxel @ Ephtracy

# group
o 

# material
mtllib Banshee - 3D.mtl
usemtl palette

# normals
vn -1 0 0
vn 1 0 0
vn 0 0 1
vn 0 0 -1
vn 0 -1 0
vn 0 1 0

# texcoords
vt 0.876953 0.5
vt 0.884766 0.5
vt 0.908203 0.5
vt 0.912109 0.5
vt 0.919922 0.5
vt 0.927734 0.5
vt 0.931641 0.5
vt 0.935547 0.5

# verts
v -0.4 0.8 0.2
v -0.4 0.8 -0.1
v -0.4 0.9 0.3
v -0.4 0.9 0.2
v -0.4 0.9 -0.1
v -0.4 0.9 -0.2
v -0.4 1 -0.2
v -0.4 1 -0.3
v -0.4 1.3 0.1
v -0.4 1.3 0
v -0.4 1.4 0.1
v -0.4 1.4 0
v -0.4 1.5 0.1
v -0.4 1.5 0
v -0.4 1.7 0.3
v -0.4 1.7 0.2
v -0.4 1.7 -0.2
v -0.4 1.7 -0.3
v -0.4 1.8 0.2
v -0.4 1.8 -0.2
v -0.3 0.6 0.1
v -0.3 0.6 0
v -0.3 0.7 0.2
v -0.3 0.7 0.1
v -0.3 0.7 0
v -0.3 0.7 -0.1
v -0.3 0.8 0.3
v -0.3 0.8 0.2
v -0.3 0.8 -0.1
v -0.3 0.8 -0.2
v -0.3 0.9 0.3
v -0.3 0.9 0.2
v -0.3 0.9 -0.1
v -0.3 0.9 -0.2
v -0.3 0.9 -0.3
v -0.3 1 -0.2
v -0.3 1 -0.3
v -0.3 1 -0.4
v -0.3 1.6 -0.3
v -0.3 1.6 -0.4
v -0.3 1.7 0.3
v -0.3 1.7 0.2
v -0.3 1.7 -0.2
v -0.3 1.7 -0.3
v -0.3 1.8 0.3
v -0.3 1.8 0.2
v -0.3 1.8 -0.2
v -0.3 1.8 -0.3
v -0.3 1.9 0.2
v -0.3 1.9 -0.2
v -0.2 0.6 0.2
v -0.2 0.6 0.1
v -0.2 0.6 0
v -0.2 0.6 -0.2
v -0.2 0.7 0.2
v -0.2 0.7 0.1
v -0.2 0.7 0
v -0.2 0.7 -0.1
v -0.2 0.8 -0.1
v -0.2 0.8 -0.2
v -0.2 0.8 -0.3
v -0.2 0.9 -0.2
v -0.2 0.9 -0.3
v -0.2 0.9 -0.4
v -0.2 1 -0.3
v -0.2 1 -0.4
v -0.2 1.6 -0.3
v -0.2 1.6 -0.4
v -0.2 1.7 -0.3
v -0.2 1.7 -0.4
v -0.2 1.8 0.3
v -0.2 1.8 0.2
v -0.2 1.8 -0.2
v -0.2 1.8 -0.3
v -0.2 1.9 0.3
v -0.2 1.9 0.2
v -0.2 1.9 -0.2
v -0.2 1.9 -0.3
v -0.1 0.5 0.1
v -0.1 0.5 -0.1
v -0.1 0.6 0.1
v -0.1 0.6 -0.1
v -0.1 1.7 -0.3
v -0.1 1.7 -0.4
v -0.1 1.8 -0.3
v -0.1 1.8 -0.4
v 0.2 0.8 0.3
v 0.2 0.8 0.2
v 0.2 1.1 0.3
v 0.2 1.1 0.2
v -0.2 0.8 0.3
v -0.2 0.8 0.2
v -0.2 1 0.2
v -0.2 1.1 0.3
v -0.2 1.1 0.2
v 0.1 0.5 0.1
v 0.1 0.5 -0.1
v 0.1 0.6 0.1
v 0.1 0.6 -0.1
v 0.1 1.7 -0.3
v 0.1 1.7 -0.4
v 0.1 1.8 -0.3
v 0.1 1.8 -0.4
v 0.2 0.6 0.2
v 0.2 0.6 0.1
v 0.2 0.6 0
v 0.2 0.6 -0.2
v 0.2 0.7 0.2
v 0.2 0.7 0.1
v 0.2 0.7 0
v 0.2 0.7 -0.1
v 0.2 0.8 -0.1
v 0.2 0.8 -0.2
v 0.2 0.8 -0.3
v 0.2 0.9 -0.2
v 0.2 0.9 -0.3
v 0.2 0.9 -0.4
v 0.2 1 -0.3
v 0.2 1 -0.4
v 0.2 1.6 -0.3
v 0.2 1.6 -0.4
v 0.2 1.7 -0.3
v 0.2 1.7 -0.4
v 0.2 1.8 0.3
v 0.2 1.8 0.2
v 0.2 1.8 -0.2
v 0.2 1.8 -0.3
v 0.2 1.9 0.3
v 0.2 1.9 0.2
v 0.2 1.9 -0.2
v 0.2 1.9 -0.3
v 0.3 0.6 0.1
v 0.3 0.6 0
v 0.3 0.7 0.2
v 0.3 0.7 0.1
v 0.3 0.7 0
v 0.3 0.7 -0.1
v 0.3 0.8 0.3
v 0.3 0.8 0.2
v 0.3 0.8 -0.1
v 0.3 0.8 -0.2
v 0.3 0.9 0.3
v 0.3 0.9 0.2
v 0.3 0.9 -0.1
v 0.3 0.9 -0.2
v 0.3 0.9 -0.3
v 0.3 1 -0.2
v 0.3 1 -0.3
v 0.3 1 -0.4
v 0.3 1.6 -0.3
v 0.3 1.6 -0.4
v 0.3 1.7 0.3
v 0.3 1.7 0.2
v 0.3 1.7 -0.2
v 0.3 1.7 -0.3
v 0.3 1.8 0.3
v 0.3 1.8 0.2
v 0.3 1.8 -0.2
v 0.3 1.8 -0.3
v 0.3 1.9 0.2
v 0.3 1.9 -0.2
v 0.4 0.8 0.2
v 0.4 0.8 -0.1
v 0.4 0.9 0.3
v 0.4 0.9 0.2
v 0.4 0.9 -0.1
v 0.4 0.9 -0.2
v 0.4 1 -0.2
v 0.4 1 -0.3
v 0.4 1.3 0.1
v 0.4 1.3 0
v 0.4 1.4 0.1
v 0.4 1.4 0
v 0.4 1.5 0.1
v 0.4 1.5 0
v 0.4 1.7 0.3
v 0.4 1.7 0.2
v 0.4 1.7 -0.2
v 0.4 1.7 -0.3
v 0.4 1.8 0.2
v 0.4 1.8 -0.2
v -0.4 0.9 0.3
v -0.4 1.7 0.3
v -0.3 0.8 0.3
v -0.3 0.9 0.3
v -0.3 1.2 0.3
v -0.3 1.3 0.3
v -0.3 1.4 0.3
v -0.3 1.7 0.3
v -0.3 1.8 0.3
v -0.2 0.8 0.3
v -0.2 1.1 0.3
v -0.2 1.2 0.3
v -0.2 1.4 0.3
v -0.2 1.5 0.3
v -0.2 1.8 0.3
v -0.2 1.9 0.3
v 0.2 0.8 0.3
v 0.2 1.1 0.3
v 0.2 1.2 0.3
v 0.2 1.4 0.3
v 0.2 1.5 0.3
v 0.2 1.8 0.3
v 0.2 1.9 0.3
v 0.3 0.8 0.3
v 0.3 0.9 0.3
v 0.3 1.2 0.3
v 0.3 1.3 0.3
v 0.3 1.4 0.3
v 0.3 1.7 0.3
v 0.3 1.8 0.3
v 0.4 0.9 0.3
v 0.4 1.7 0.3
v -0.4 0.8 0.2
v -0.4 0.9 0.2
v -0.4 1.7 0.2
v -0.4 1.8 0.2
v -0.3 0.7 0.2
v -0.3 0.8 0.2
v -0.3 0.9 0.2
v -0.3 1.7 0.2
v -0.3 1.8 0.2
v -0.3 1.9 0.2
v -0.2 0.6 0.2
v -0.2 0.7 0.2
v -0.2 0.8 0.2
v -0.2 1 0.2
v -0.2 1.1 0.2
v -0.2 1.8 0.2
v -0.2 1.9 0.2
v -0.1 1 0.2
v -0.1 1.1 0.2
v 0.2 0.6 0.2
v 0.2 0.7 0.2
v 0.2 0.8 0.2
v 0.2 1.1 0.2
v 0.2 1.8 0.2
v 0.2 1.9 0.2
v 0.3 0.7 0.2
v 0.3 0.8 0.2
v 0.3 0.9 0.2
v 0.3 1.7 0.2
v 0.3 1.8 0.2
v 0.3 1.9 0.2
v 0.4 0.8 0.2
v 0.4 0.9 0.2
v 0.4 1.7 0.2
v 0.4 1.8 0.2
v -0.3 0.6 0.1
v -0.3 0.7 0.1
v -0.2 0.6 0.1
v -0.2 0.7 0.1
v -0.1 0.5 0.1
v -0.1 0.6 0.1
v 0.1 0.5 0.1
v 0.1 0.6 0.1
v 0.2 0.6 0.1
v 0.2 0.7 0.1
v 0.3 0.6 0.1
v 0.3 0.7 0.1
v -0.3 0.6 0
v -0.3 0.7 0
v -0.2 0.6 0
v -0.2 0.7 0
v 0.2 0.6 0
v 0.2 0.7 0
v 0.3 0.6 0
v 0.3 0.7 0
v -0.4 0.8 -0.1
v -0.4 0.9 -0.1
v -0.3 0.7 -0.1
v -0.3 0.8 -0.1
v -0.3 0.9 -0.1
v -0.2 0.7 -0.1
v -0.2 0.8 -0.1
v -0.1 0.5 -0.1
v -0.1 0.6 -0.1
v 0.1 0.5 -0.1
v 0.1 0.6 -0.1
v 0.2 0.7 -0.1
v 0.2 0.8 -0.1
v 0.3 0.7 -0.1
v 0.3 0.8 -0.1
v 0.3 0.9 -0.1
v 0.4 0.8 -0.1
v 0.4 0.9 -0.1
v -0.4 0.9 -0.2
v -0.4 1 -0.2
v -0.4 1.7 -0.2
v -0.4 1.8 -0.2
v -0.3 0.8 -0.2
v -0.3 0.9 -0.2
v -0.3 1 -0.2
v -0.3 1.7 -0.2
v -0.3 1.8 -0.2
v -0.3 1.9 -0.2
v -0.2 0.6 -0.2
v -0.2 0.8 -0.2
v -0.2 0.9 -0.2
v -0.2 1.8 -0.2
v -0.2 1.9 -0.2
v 0.2 0.6 -0.2
v 0.2 0.8 -0.2
v 0.2 0.9 -0.2
v 0.2 1.8 -0.2
v 0.2 1.9 -0.2
v 0.3 0.8 -0.2
v 0.3 0.9 -0.2
v 0.3 1 -0.2
v 0.3 1.7 -0.2
v 0.3 1.8 -0.2
v 0.3 1.9 -0.2
v 0.4 0.9 -0.2
v 0.4 1 -0.2
v 0.4 1.7 -0.2
v 0.4 1.8 -0.2
v -0.4 1 -0.3
v -0.4 1.7 -0.3
v -0.3 0.9 -0.3
v -0.3 1 -0.3
v -0.3 1.6 -0.3
v -0.3 1.7 -0.3
v -0.3 1.8 -0.3
v -0.2 0.8 -0.3
v -0.2 0.9 -0.3
v -0.2 1 -0.3
v -0.2 1.6 -0.3
v -0.2 1.7 -0.3
v -0.2 1.8 -0.3
v -0.2 1.9 -0.3
v -0.1 1.7 -0.3
v -0.1 1.8 -0.3
v 0.1 1.7 -0.3
v 0.1 1.8 -0.3
v 0.2 0.8 -0.3
v 0.2 0.9 -0.3
v 0.2 1 -0.3
v 0.2 1.6 -0.3
v 0.2 1.7 -0.3
v 0.2 1.8 -0.3
v 0.2 1.9 -0.3
v 0.3 0.9 -0.3
v 0.3 1 -0.3
v 0.3 1.6 -0.3
v 0.3 1.7 -0.3
v 0.3 1.8 -0.3
v 0.4 1 -0.3
v 0.4 1.7 -0.3
v -0.3 1 -0.4
v -0.3 1.6 -0.4
v -0.2 0.9 -0.4
v -0.2 1 -0.4
v -0.2 1.6 -0.4
v -0.2 1.7 -0.4
v -0.1 1.7 -0.4
v -0.1 1.8 -0.4
v 0.1 1.7 -0.4
v 0.1 1.8 -0.4
v 0.2 0.9 -0.4
v 0.2 1 -0.4
v 0.2 1.6 -0.4
v 0.2 1.7 -0.4
v 0.3 1 -0.4
v 0.3 1.6 -0.4
v -0.1 0.5 0.1
v 0.1 0.5 0.1
v -0.1 0.5 -0.1
v 0.1 0.5 -0.1
v -0.2 0.6 0.2
v 0.2 0.6 0.2
v -0.3 0.6 0.1
v -0.2 0.6 0.1
v -0.1 0.6 0.1
v 0.1 0.6 0.1
v 0.2 0.6 0.1
v 0.3 0.6 0.1
v -0.3 0.6 0
v -0.2 0.6 0
v 0.2 0.6 0
v 0.3 0.6 0
v -0.1 0.6 -0.1
v 0.1 0.6 -0.1
v -0.2 0.6 -0.2
v 0.2 0.6 -0.2
v -0.3 0.7 0.2
v -0.2 0.7 0.2
v 0.2 0.7 0.2
v 0.3 0.7 0.2
v -0.3 0.7 0.1
v -0.2 0.7 0.1
v 0.2 0.7 0.1
v 0.3 0.7 0.1
v -0.3 0.7 0
v -0.2 0.7 0
v 0.2 0.7 0
v 0.3 0.7 0
v -0.3 0.7 -0.1
v -0.2 0.7 -0.1
v 0.2 0.7 -0.1
v 0.3 0.7 -0.1
v -0.3 0.8 0.3
v -0.2 0.8 0.3
v 0.2 0.8 0.3
v 0.3 0.8 0.3
v -0.4 0.8 0.2
v -0.3 0.8 0.2
v -0.2 0.8 0.2
v 0.2 0.8 0.2
v 0.3 0.8 0.2
v 0.4 0.8 0.2
v -0.4 0.8 -0.1
v -0.3 0.8 -0.1
v -0.2 0.8 -0.1
v 0.2 0.8 -0.1
v 0.3 0.8 -0.1
v 0.4 0.8 -0.1
v -0.3 0.8 -0.2
v -0.2 0.8 -0.2
v 0.2 0.8 -0.2
v 0.3 0.8 -0.2
v -0.2 0.8 -0.3
v 0.2 0.8 -0.3
v -0.4 0.9 0.3
v -0.3 0.9 0.3
v 0.3 0.9 0.3
v 0.4 0.9 0.3
v -0.4 0.9 0.2
v -0.3 0.9 0.2
v 0.3 0.9 0.2
v 0.4 0.9 0.2
v -0.4 0.9 -0.1
v -0.3 0.9 -0.1
v 0.3 0.9 -0.1
v 0.4 0.9 -0.1
v -0.4 0.9 -0.2
v -0.3 0.9 -0.2
v -0.2 0.9 -0.2
v 0.2 0.9 -0.2
v 0.3 0.9 -0.2
v 0.4 0.9 -0.2
v -0.3 0.9 -0.3
v -0.2 0.9 -0.3
v 0.2 0.9 -0.3
v 0.3 0.9 -0.3
v -0.2 0.9 -0.4
v 0.2 0.9 -0.4
v -0.4 1 -0.2
v -0.3 1 -0.2
v 0.3 1 -0.2
v 0.4 1 -0.2
v -0.4 1 -0.3
v -0.3 1 -0.3
v -0.2 1 -0.3
v 0.2 1 -0.3
v 0.3 1 -0.3
v 0.4 1 -0.3
v -0.3 1 -0.4
v -0.2 1 -0.4
v 0.2 1 -0.4
v 0.3 1 -0.4
v -0.2 1.1 0.3
v 0.2 1.1 0.3
v -0.2 1.1 0.2
v -0.1 1.1 0.2
v 0.2 1.1 0.2
v -0.3 1.6 -0.3
v -0.2 1.6 -0.3
v 0.2 1.6 -0.3
v 0.3 1.6 -0.3
v -0.3 1.6 -0.4
v -0.2 1.6 -0.4
v 0.2 1.6 -0.4
v 0.3 1.6 -0.4
v -0.4 1.7 0.3
v -0.3 1.7 0.3
v 0.3 1.7 0.3
v 0.4 1.7 0.3
v -0.4 1.7 0.2
v -0.3 1.7 0.2
v 0.3 1.7 0.2
v 0.4 1.7 0.2
v -0.4 1.7 -0.2
v -0.3 1.7 -0.2
v 0.3 1.7 -0.2
v 0.4 1.7 -0.2
v -0.4 1.7 -0.3
v -0.3 1.7 -0.3
v -0.2 1.7 -0.3
v -0.1 1.7 -0.3
v 0.1 1.7 -0.3
v 0.2 1.7 -0.3
v 0.3 1.7 -0.3
v 0.4 1.7 -0.3
v -0.2 1.7 -0.4
v -0.1 1.7 -0.4
v 0.1 1.7 -0.4
v 0.2 1.7 -0.4
v -0.3 1.8 0.3
v -0.2 1.8 0.3
v 0.2 1.8 0.3
v 0.3 1.8 0.3
v -0.4 1.8 0.2
v -0.3 1.8 0.2
v -0.2 1.8 0.2
v 0.2 1.8 0.2
v 0.3 1.8 0.2
v 0.4 1.8 0.2
v -0.4 1.8 -0.2
v -0.3 1.8 -0.2
v -0.2 1.8 -0.2
v 0.2 1.8 -0.2
v 0.3 1.8 -0.2
v 0.4 1.8 -0.2
v -0.3 1.8 -0.3
v -0.2 1.8 -0.3
v -0.1 1.8 -0.3
v 0.1 1.8 -0.3
v 0.2 1.8 -0.3
v 0.3 1.8 -0.3
v -0.1 1.8 -0.4
v 0.1 1.8 -0.4
v -0.2 1.9 0.3
v 0.2 1.9 0.3
v -0.3 1.9 0.2
v -0.2 1.9 0.2
v 0.2 1.9 0.2
v 0.3 1.9 0.2
v -0.3 1.9 -0.2
v -0.2 1.9 -0.2
v 0.2 1.9 -0.2
v 0.3 1.9 -0.2
v -0.2 1.9 -0.3
v 0.2 1.9 -0.3

# faces
f 4/7/1 2/7/1 1/7/1
f 5/7/1 2/7/1 4/7/1
f 7/7/1 4/7/1 3/7/1
f 7/7/1 6/7/1 5/7/1
f 7/7/1 5/7/1 4/7/1
f 9/7/1 7/7/1 3/7/1
f 9/7/1 8/7/1 7/7/1
f 10/7/1 8/7/1 9/7/1
f 11/7/1 9/7/1 3/7/1
f 11/1/1 10/1/1 9/1/1
f 12/7/1 8/7/1 10/7/1
f 12/1/1 10/1/1 11/1/1
f 13/7/1 11/7/1 3/7/1
f 13/4/1 12/4/1 11/4/1
f 14/7/1 8/7/1 12/7/1
f 14/4/1 12/4/1 13/4/1
f 15/7/1 13/7/1 3/7/1
f 15/7/1 14/7/1 13/7/1
f 16/7/1 14/7/1 15/7/1
f 17/7/1 8/7/1 14/7/1
f 17/7/1 14/7/1 16/7/1
f 18/7/1 8/7/1 17/7/1
f 19/7/1 17/7/1 16/7/1
f 20/7/1 17/7/1 19/7/1
f 24/7/1 22/7/1 21/7/1
f 25/7/1 22/7/1 24/7/1
f 28/7/1 24/7/1 23/7/1
f 28/7/1 26/7/1 25/7/1
f 28/7/1 25/7/1 24/7/1
f 29/7/1 26/7/1 28/7/1
f 31/7/1 28/7/1 27/7/1
f 32/7/1 28/7/1 31/7/1
f 33/7/1 30/7/1 29/7/1
f 34/7/1 30/7/1 33/7/1
f 36/7/1 35/7/1 34/7/1
f 37/7/1 35/7/1 36/7/1
f 39/7/1 38/7/1 37/7/1
f 40/7/1 38/7/1 39/7/1
f 45/7/1 42/7/1 41/7/1
f 46/7/1 42/7/1 45/7/1
f 47/7/1 44/7/1 43/7/1
f 48/7/1 44/7/1 47/7/1
f 49/7/1 47/7/1 46/7/1
f 50/7/1 47/7/1 49/7/1
f 55/1/1 52/1/1 51/1/1
f 56/1/1 52/1/1 55/1/1
f 57/1/1 54/1/1 53/1/1
f 58/1/1 54/1/1 57/1/1
f 59/1/1 54/1/1 58/1/1
f 60/1/1 54/1/1 59/1/1
f 62/7/1 61/7/1 60/7/1
f 63/7/1 61/7/1 62/7/1
f 65/7/1 64/7/1 63/7/1
f 66/7/1 64/7/1 65/7/1
f 69/7/1 68/7/1 67/7/1
f 70/7/1 68/7/1 69/7/1
f 75/7/1 72/7/1 71/7/1
f 76/7/1 72/7/1 75/7/1
f 77/7/1 74/7/1 73/7/1
f 78/7/1 74/7/1 77/7/1
f 81/1/1 80/1/1 79/1/1
f 82/1/1 80/1/1 81/1/1
f 85/7/1 84/7/1 83/7/1
f 86/7/1 84/7/1 85/7/1
f 89/7/1 88/7/1 87/7/1
f 90/7/1 88/7/1 89/7/1
f 91/7/2 92/7/2 93/7/2
f 91/7/2 93/7/2 94/7/2
f 94/7/2 93/7/2 95/7/2
f 96/1/2 97/1/2 98/1/2
f 98/1/2 97/1/2 99/1/2
f 100/7/2 101/7/2 102/7/2
f 102/7/2 101/7/2 103/7/2
f 104/1/2 105/1/2 108/1/2
f 108/1/2 105/1/2 109/1/2
f 106/1/2 107/1/2 110/1/2
f 110/1/2 107/1/2 111/1/2
f 111/1/2 107/1/2 112/1/2
f 112/1/2 107/1/2 113/1/2
f 113/7/2 114/7/2 115/7/2
f 115/7/2 114/7/2 116/7/2
f 116/7/2 117/7/2 118/7/2
f 118/7/2 117/7/2 119/7/2
f 120/7/2 121/7/2 122/7/2
f 122/7/2 121/7/2 123/7/2
f 124/7/2 125/7/2 128/7/2
f 128/7/2 125/7/2 129/7/2
f 126/7/2 127/7/2 130/7/2
f 130/7/2 127/7/2 131/7/2
f 132/7/2 133/7/2 135/7/2
f 135/7/2 133/7/2 136/7/2
f 134/7/2 135/7/2 139/7/2
f 136/7/2 137/7/2 139/7/2
f 135/7/2 136/7/2 139/7/2
f 139/7/2 137/7/2 140/7/2
f 138/7/2 139/7/2 142/7/2
f 142/7/2 139/7/2 143/7/2
f 140/7/2 141/7/2 144/7/2
f 144/7/2 141/7/2 145/7/2
f 145/7/2 146/7/2 147/7/2
f 147/7/2 146/7/2 148/7/2
f 148/7/2 149/7/2 150/7/2
f 150/7/2 149/7/2 151/7/2
f 152/7/2 153/7/2 156/7/2
f 156/7/2 153/7/2 157/7/2
f 154/7/2 155/7/2 158/7/2
f 158/7/2 155/7/2 159/7/2
f 157/7/2 158/7/2 160/7/2
f 160/7/2 158/7/2 161/7/2
f 162/7/2 163/7/2 165/7/2
f 165/7/2 163/7/2 166/7/2
f 164/7/2 165/7/2 168/7/2
f 166/7/2 167/7/2 168/7/2
f 165/7/2 166/7/2 168/7/2
f 164/7/2 168/7/2 170/7/2
f 168/7/2 169/7/2 170/7/2
f 170/7/2 169/7/2 171/7/2
f 164/7/2 170/7/2 172/7/2
f 170/1/2 171/1/2 172/1/2
f 171/7/2 169/7/2 173/7/2
f 172/1/2 171/1/2 173/1/2
f 164/7/2 172/7/2 174/7/2
f 172/4/2 173/4/2 174/4/2
f 173/7/2 169/7/2 175/7/2
f 174/4/2 173/4/2 175/4/2
f 164/7/2 174/7/2 176/7/2
f 174/7/2 175/7/2 176/7/2
f 176/7/2 175/7/2 177/7/2
f 175/7/2 169/7/2 178/7/2
f 177/7/2 175/7/2 178/7/2
f 178/7/2 169/7/2 179/7/2
f 177/7/2 178/7/2 180/7/2
f 180/7/2 178/7/2 181/7/2
f 185/7/3 183/7/3 182/7/3
f 186/7/3 183/7/3 185/7/3
f 187/7/3 183/7/3 186/7/3
f 188/7/3 183/7/3 187/7/3
f 189/7/3 183/7/3 188/7/3
f 191/7/3 185/7/3 184/7/3
f 191/7/3 186/7/3 185/7/3
f 192/7/3 186/7/3 191/7/3
f 193/1/3 187/1/3 186/1/3
f 193/7/3 186/7/3 192/7/3
f 194/7/3 190/7/3 189/7/3
f 194/7/3 189/7/3 188/7/3
f 194/2/3 188/2/3 187/2/3
f 195/7/3 190/7/3 194/7/3
f 196/7/3 190/7/3 195/7/3
f 199/5/3 193/5/3 192/5/3
f 200/1/3 187/1/3 193/1/3
f 200/5/3 193/5/3 199/5/3
f 201/2/3 194/2/3 187/2/3
f 201/2/3 195/2/3 194/2/3
f 202/7/3 196/7/3 195/7/3
f 202/2/3 195/2/3 201/2/3
f 202/7/3 197/7/3 196/7/3
f 203/7/3 197/7/3 202/7/3
f 204/7/3 197/7/3 203/7/3
f 205/7/3 199/7/3 198/7/3
f 205/7/3 200/7/3 199/7/3
f 206/7/3 200/7/3 205/7/3
f 207/1/3 187/1/3 200/1/3
f 207/7/3 200/7/3 206/7/3
f 208/2/3 201/2/3 187/2/3
f 208/1/3 187/1/3 207/1/3
f 209/7/3 203/7/3 202/7/3
f 209/2/3 201/2/3 208/2/3
f 209/7/3 202/7/3 201/7/3
f 210/7/3 203/7/3 209/7/3
f 211/7/3 203/7/3 210/7/3
f 212/7/3 207/7/3 206/7/3
f 212/7/3 210/7/3 209/7/3
f 212/7/3 209/7/3 208/7/3
f 212/7/3 208/7/3 207/7/3
f 213/7/3 210/7/3 212/7/3
f 219/7/3 215/7/3 214/7/3
f 220/7/3 215/7/3 219/7/3
f 221/7/3 217/7/3 216/7/3
f 222/7/3 217/7/3 221/7/3
f 225/7/3 219/7/3 218/7/3
f 226/7/3 219/7/3 225/7/3
f 229/7/3 223/7/3 222/7/3
f 230/7/3 223/7/3 229/7/3
f 231/5/3 228/5/3 227/5/3
f 231/1/3 225/1/3 224/1/3
f 231/1/3 226/1/3 225/1/3
f 231/1/3 227/1/3 226/1/3
f 232/5/3 228/5/3 231/5/3
f 233/1/3 231/1/3 224/1/3
f 233/1/3 232/1/3 231/1/3
f 234/1/3 232/1/3 233/1/3
f 235/1/3 232/1/3 234/1/3
f 236/1/3 232/1/3 235/1/3
f 239/7/3 235/7/3 234/7/3
f 240/7/3 235/7/3 239/7/3
f 243/7/3 238/7/3 237/7/3
f 244/7/3 238/7/3 243/7/3
f 245/7/3 241/7/3 240/7/3
f 246/7/3 241/7/3 245/7/3
f 247/7/3 243/7/3 242/7/3
f 248/7/3 243/7/3 247/7/3
f 251/7/3 250/7/3 249/7/3
f 252/7/3 250/7/3 251/7/3
f 255/1/3 254/1/3 253/1/3
f 256/1/3 254/1/3 255/1/3
f 259/7/3 258/7/3 257/7/3
f 260/7/3 258/7/3 259/7/3
f 261/7/4 262/7/4 263/7/4
f 263/7/4 262/7/4 264/7/4
f 265/7/4 266/7/4 267/7/4
f 267/7/4 266/7/4 268/7/4
f 269/7/4 270/7/4 272/7/4
f 272/7/4 270/7/4 273/7/4
f 271/7/4 272/7/4 274/7/4
f 274/7/4 272/7/4 275/7/4
f 276/1/4 277/1/4 278/1/4
f 278/1/4 277/1/4 279/1/4
f 280/7/4 281/7/4 282/7/4
f 282/7/4 281/7/4 283/7/4
f 283/7/4 284/7/4 285/7/4
f 285/7/4 284/7/4 286/7/4
f 287/7/4 288/7/4 292/7/4
f 292/7/4 288/7/4 293/7/4
f 289/7/4 290/7/4 294/7/4
f 294/7/4 290/7/4 295/7/4
f 291/7/4 292/7/4 298/7/4
f 298/7/4 292/7/4 299/7/4
f 295/7/4 296/7/4 300/7/4
f 300/7/4 296/7/4 301/7/4
f 297/1/4 298/1/4 302/1/4
f 302/1/4 298/1/4 303/1/4
f 303/7/4 304/7/4 307/7/4
f 307/7/4 304/7/4 308/7/4
f 305/7/4 306/7/4 311/7/4
f 311/7/4 306/7/4 312/7/4
f 308/7/4 309/7/4 313/7/4
f 313/7/4 309/7/4 314/7/4
f 310/7/4 311/7/4 315/7/4
f 315/7/4 311/7/4 316/7/4
f 317/7/4 318/7/4 320/7/4
f 320/7/4 318/7/4 321/7/4
f 321/7/4 318/7/4 322/7/4
f 319/7/4 320/7/4 325/7/4
f 325/7/4 320/7/4 326/7/4
f 321/7/4 322/7/4 327/7/4
f 322/7/4 323/7/4 327/7/4
f 327/7/4 323/7/4 328/7/4
f 328/7/4 323/7/4 329/7/4
f 329/7/4 330/7/4 331/7/4
f 328/7/4 329/7/4 331/7/4
f 331/7/4 330/7/4 332/7/4
f 332/7/4 330/7/4 334/7/4
f 324/7/4 325/7/4 335/7/4
f 335/7/4 325/7/4 336/7/4
f 333/7/4 334/7/4 339/7/4
f 334/7/4 330/7/4 340/7/4
f 339/7/4 334/7/4 340/7/4
f 340/7/4 330/7/4 341/7/4
f 336/7/4 337/7/4 342/7/4
f 342/7/4 337/7/4 343/7/4
f 338/7/4 339/7/4 344/7/4
f 339/7/4 340/7/4 344/7/4
f 344/7/4 340/7/4 345/7/4
f 345/7/4 340/7/4 346/7/4
f 343/7/4 344/7/4 347/7/4
f 344/7/4 345/7/4 347/7/4
f 347/7/4 345/7/4 348/7/4
f 349/7/4 350/7/4 352/7/4
f 352/7/4 350/7/4 353/7/4
f 351/7/4 352/7/4 355/7/4
f 353/7/4 354/7/4 355/7/4
f 352/7/4 353/7/4 355/7/4
f 351/7/4 355/7/4 357/7/4
f 355/7/4 356/7/4 357/7/4
f 357/7/4 356/7/4 358/7/4
f 351/7/4 357/7/4 359/7/4
f 359/7/4 357/7/4 360/7/4
f 360/7/4 357/7/4 361/7/4
f 361/7/4 357/7/4 362/7/4
f 360/7/4 361/7/4 363/7/4
f 363/7/4 361/7/4 364/7/4
f 367/1/5 366/1/5 365/1/5
f 368/1/5 366/1/5 367/1/5
f 372/1/5 370/1/5 369/1/5
f 373/1/5 370/1/5 372/1/5
f 374/1/5 370/1/5 373/1/5
f 375/1/5 370/1/5 374/1/5
f 377/7/5 372/7/5 371/7/5
f 378/1/5 373/1/5 372/1/5
f 378/7/5 372/7/5 377/7/5
f 379/7/5 376/7/5 375/7/5
f 379/1/5 375/1/5 374/1/5
f 380/7/5 376/7/5 379/7/5
f 381/1/5 373/1/5 378/1/5
f 382/1/5 379/1/5 374/1/5
f 383/1/5 381/1/5 378/1/5
f 383/1/5 382/1/5 381/1/5
f 384/1/5 379/1/5 382/1/5
f 384/1/5 382/1/5 383/1/5
f 389/7/5 386/7/5 385/7/5
f 390/7/5 386/7/5 389/7/5
f 391/7/5 388/7/5 387/7/5
f 392/7/5 388/7/5 391/7/5
f 397/7/5 394/7/5 393/7/5
f 398/7/5 394/7/5 397/7/5
f 399/7/5 396/7/5 395/7/5
f 400/7/5 396/7/5 399/7/5
f 406/7/5 402/7/5 401/7/5
f 407/7/5 402/7/5 406/7/5
f 408/7/5 404/7/5 403/7/5
f 409/7/5 404/7/5 408/7/5
f 411/7/5 406/7/5 405/7/5
f 412/7/5 406/7/5 411/7/5
f 415/7/5 410/7/5 409/7/5
f 416/7/5 410/7/5 415/7/5
f 417/7/5 413/7/5 412/7/5
f 418/7/5 413/7/5 417/7/5
f 419/7/5 415/7/5 414/7/5
f 420/7/5 415/7/5 419/7/5
f 421/7/5 419/7/5 418/7/5
f 422/7/5 419/7/5 421/7/5
f 427/7/5 424/7/5 423/7/5
f 428/7/5 424/7/5 427/7/5
f 429/7/5 426/7/5 425/7/5
f 430/7/5 426/7/5 429/7/5
f 435/7/5 432/7/5 431/7/5
f 436/7/5 432/7/5 435/7/5
f 439/7/5 434/7/5 433/7/5
f 440/7/5 434/7/5 439/7/5
f 441/7/5 437/7/5 436/7/5
f 442/7/5 437/7/5 441/7/5
f 443/7/5 439/7/5 438/7/5
f 444/7/5 439/7/5 443/7/5
f 445/7/5 443/7/5 442/7/5
f 446/7/5 443/7/5 445/7/5
f 451/7/5 448/7/5 447/7/5
f 452/7/5 448/7/5 451/7/5
f 455/7/5 450/7/5 449/7/5
f 456/7/5 450/7/5 455/7/5
f 457/7/5 453/7/5 452/7/5
f 458/7/5 453/7/5 457/7/5
f 459/7/5 455/7/5 454/7/5
f 460/7/5 455/7/5 459/7/5
f 463/5/5 462/5/5 461/5/5
f 464/5/5 462/5/5 463/5/5
f 465/5/5 462/5/5 464/5/5
f 466/7/6 467/7/6 470/7/6
f 470/7/6 467/7/6 471/7/6
f 468/7/6 469/7/6 472/7/6
f 472/7/6 469/7/6 473/7/6
f 474/7/6 475/7/6 478/7/6
f 478/7/6 475/7/6 479/7/6
f 476/7/6 477/7/6 480/7/6
f 480/7/6 477/7/6 481/7/6
f 482/7/6 483/7/6 486/7/6
f 486/7/6 483/7/6 487/7/6
f 484/7/6 485/7/6 492/7/6
f 492/7/6 485/7/6 493/7/6
f 488/7/6 489/7/6 494/7/6
f 494/7/6 489/7/6 495/7/6
f 490/7/6 491/7/6 496/7/6
f 496/7/6 491/7/6 497/7/6
f 498/7/6 499/7/6 503/7/6
f 503/7/6 499/7/6 504/7/6
f 500/7/6 501/7/6 505/7/6
f 505/7/6 501/7/6 506/7/6
f 502/7/6 503/7/6 508/7/6
f 508/7/6 503/7/6 509/7/6
f 506/7/6 507/7/6 512/7/6
f 512/7/6 507/7/6 513/7/6
f 509/7/6 510/7/6 514/7/6
f 514/7/6 510/7/6 515/7/6
f 511/7/6 512/7/6 518/7/6
f 518/7/6 512/7/6 519/7/6
f 516/7/6 517/7/6 520/7/6
f 520/7/6 517/7/6 521/7/6
f 522/7/6 523/7/6 525/7/6
f 525/7/6 523/7/6 526/7/6
f 524/7/6 525/7/6 528/7/6
f 526/7/6 527/7/6 528/7/6
f 525/7/6 526/7/6 528/7/6
f 528/7/6 527/7/6 529/7/6
f 529/7/6 527/7/6 530/7/6
f 530/7/6 527/7/6 531/7/6
f 529/7/6 530/7/6 532/7/6
f 532/7/6 530/7/6 533/7/6
